<?xml version="1.0" encoding="UTF-8"?>
<!DOCTYPE svg PUBLIC "-//W3C//DTD SVG 1.1//EN" "http://www.w3.org/Graphics/SVG/1.1/DTD/svg11.dtd">
<!-- Creator: CorelDRAW 2021 (64-Bit) -->
<svg xmlns="http://www.w3.org/2000/svg" xml:space="preserve" width="1.26772in" height="1.26772in" version="1.1" style="shape-rendering:geometricPrecision; text-rendering:geometricPrecision; image-rendering:optimizeQuality; fill-rule:evenodd; clip-rule:evenodd"
viewBox="0 0 864.51 864.51"
 xmlns:xlink="http://www.w3.org/1999/xlink"
 xmlns:xodm="http://www.corel.com/coreldraw/odm/2003">
 <defs>
  <style type="text/css">
   <![CDATA[
    .str0 {stroke:#332C2B;stroke-width:5.37;stroke-miterlimit:2.61313}
    .fil0 {fill:none}
   ]]>
  </style>
   <clipPath id="id0">
    <path d="M50.11 2.68l764.3 0c26.09,0 47.42,21.34 47.42,47.42l0 764.3c0,26.09 -21.34,47.42 -47.42,47.42l-764.3 0c-26.09,0 -47.42,-21.34 -47.42,-47.42l0 -764.3c0,-26.09 21.34,-47.42 47.42,-47.42z"/>
   </clipPath>
    <clipPath id="id1">
     <path d="M50.11 2.68l764.3 0c26.09,0 47.42,21.34 47.42,47.42l0 764.3c0,26.09 -21.34,47.42 -47.42,47.42l-764.3 0c-26.09,0 -47.42,-21.34 -47.42,-47.42l0 -764.3c0,-26.09 21.34,-47.42 47.42,-47.42z"/>
    </clipPath>
    <clipPath id="id2">
     <path d="M50.11 2.68l764.3 0c26.09,0 47.42,21.34 47.42,47.42l0 764.3c0,26.09 -21.34,47.42 -47.42,47.42l-764.3 0c-26.09,0 -47.42,-21.34 -47.42,-47.42l0 -764.3c0,-26.09 21.34,-47.42 47.42,-47.42z"/>
    </clipPath>
 </defs>
 <g id="Layer_x0020_1">
  <metadata id="CorelCorpID_0Corel-Layer"/>
  <g>
  </g>
  <g style="clip-path:url(#id0)">
   <g>
   </g>
   <g style="clip-path:url(#id1)">
    <image id="Screenshot_x0020_2026-01-12_x0020_003614.png" x="-19.63" y="-35.91" width="911.08" height="925.07" xlink:href="placeholder_Images\placeholder_ImgID1.png"/>
   </g>
   <g style="clip-path:url(#id2)">
   </g>
  </g>
  <path class="fil0 str0" d="M50.11 2.68l764.3 0c26.09,0 47.42,21.34 47.42,47.42l0 764.3c0,26.09 -21.34,47.42 -47.42,47.42l-764.3 0c-26.09,0 -47.42,-21.34 -47.42,-47.42l0 -764.3c0,-26.09 21.34,-47.42 47.42,-47.42z"/>
 </g>
</svg>
